{"title":"Banshee!!!-AC3-2,0-DVDRip[Eng]2008","uid":5029115,"size":1461015247,"categoryP":"video","categoryS":"movies","magnet":"?xt=urn:btih:7209d77b8886287663386aea03766ffb1bf0b188&amp;dn=Banshee%21%21%21-AC3-2%2C0-DVDRip%5BEng%5D2008&amp;tr=udp%3A%2F%2Ftracker.openbittorrent.com%3A80&amp;tr=udp%3A%2F%2Fopen.demonii.com%3A1337&amp;tr=udp%3A%2F%2Ftracker.coppersurfer.tk%3A6969&amp;tr=udp%3A%2F%2Fexodus.desync.com%3A6969","seeders":0,"leechers":4,"uploader":"FatFreddy31","files":-1,"time":1248829810,"description":" &lt;a href=&quot;http://www.imdb.com/title/tt1073482/&quot; rel=&quot;nofollow&quot; target=&quot;_NEW&quot;&gt;http://www.imdb.com/title/tt1073482/&lt;/a&gt;\n\nUser Rating:4.0/10 - 25 votes\n\nAction,Horror\n\nDirector:Colin Theys\n\nCast:Troy Walcott/Ashley Bates/David McCarthy/Kerry McGann, and others.\n\nPlot:\nA group of college friends on a spring break camping trip are stalked and slashed by an unknown creature with the ability to make them hallucinate through sound waves. The survivors hold up refuge in an isolated farmhouse, cut off from all communication. Now, they have to come up with a plan to kill this unrelenting creature before it kills them. &quot;Banshee!!!&quot; takes the idea of the legendary Irish myth and spins it around into a terrifying and unstoppable monster!.......\n\nInfo:\n\nGeneral\nComplete name                    : Banshee!!!-AC3-2,0-DVDRip[Eng]2008.avi\nFormat                           : AVI\nFormat/Info                      : Audio Video Interleave\nFile size                        : 1.36 GiB\nDuration                         : 1h 21mn\nOverall bit rate                 : 2 385 Kbps\nWriting application              : VirtualDubMod 1.5.4.1 (build 2178/release)\nWriting library                  : VirtualDubMod build 2178/release\n\nVideo\nFormat                           : MPEG-4 Visual\nFormat profile                   : Simple@L3\nFormat settings, BVOP            : No\nFormat settings, QPel            : No\nFormat settings, GMC             : No warppoints\nFormat settings, Matrix          : Default\nCodec ID                         : XVID\nCodec ID/Hint                    : XviD\nDuration                         : 1h 21mn\nBit rate                         : 2 119 Kbps\nWidth                            : 640 pixels\nHeight                           : 352 pixels\nDisplay aspect ratio             : 16/9\nFrame rate                       : 25.000 fps\nResolution                       : 24 bits\nColorimetry                      : 4:2:0\nScan type                        : Progressive\nBits/(Pixel*Frame)               : 0.376\nStream size                      : 1.21 GiB (89%)\nWriting library                  : XviD 1.1.2 (UTC 2006-11-01)\n\nAudio\nFormat                           : AC-3\nFormat/Info                      : Audio Coding 3\nCodec ID                         : 2000\nDuration                         : 1h 21mn\nBit rate mode                    : Constant\nBit rate                         : 256 Kbps\nChannel(s)                       : 2 channels\nChannel positions                : L R\nSampling rate                    : 48.0 KHz\nStream size                      : 150 MiB (11%)\nAlignment                        : Split accross interleaves\nInterleave, duration             : 40 ms (1.00 video frame)\nInterleave, preload duration     : 500 ms\n\nEnjoy....","torrent":{"xt":"urn:btih:7209d77b8886287663386aea03766ffb1bf0b188","amp;dn":"Banshee%21%21%21-AC3-2%2C0-DVDRip%5BEng%5D2008","amp;tr":["udp%3A%2F%2Ftracker.openbittorrent.com%3A80","udp%3A%2F%2Fopen.demonii.com%3A1337","udp%3A%2F%2Ftracker.coppersurfer.tk%3A6969","udp%3A%2F%2Fexodus.desync.com%3A6969"],"infoHash":"7209d77b8886287663386aea03766ffb1bf0b188","infoHashBuffer":{"type":"Buffer","data":[114,9,215,123,136,134,40,118,99,56,106,234,3,118,111,251,27,240,177,136]},"announce":[],"urlList":[]}}